<?xml version="1.0" standalone="no"?>
<!DOCTYPE svg PUBLIC "-//W3C//DTD SVG 20010904//EN"
 "http://www.w3.org/TR/2001/REC-SVG-20010904/DTD/svg10.dtd">
<svg version="1.0" xmlns="http://www.w3.org/2000/svg"
 width="500.000000pt" height="500.000000pt" viewBox="0 0 500.000000 500.000000"
 preserveAspectRatio="xMidYMid meet">
<metadata>
Created by potrace 1.14, written by Peter Selinger 2001-2017
</metadata>
<g transform="translate(0.000000,500.000000) scale(0.100000,-0.100000)"
fill="#000000" stroke="none">
<path d="M942 4985 c-242 -44 -434 -145 -608 -319 -168 -169 -270 -365 -310
-597 -12 -73 -14 -301 -12 -1610 l3 -1524 27 -97 c55 -199 151 -363 297 -509
120 -119 232 -194 372 -249 154 -61 384 -95 473 -70 59 16 119 69 141 122 17
40 18 122 20 1313 2 965 5 1282 14 1320 7 28 14 59 17 69 18 89 92 247 156
334 56 75 169 185 242 235 32 21 97 57 144 79 75 35 113 47 227 74 17 4 309
10 650 13 l620 6 47 28 c26 15 55 39 66 55 45 66 45 66 45 631 l0 538 -22 46
c-27 55 -77 100 -130 116 -59 17 -2380 14 -2479 -4z"/>
<path d="M3795 4980 c-58 -30 -81 -52 -107 -101 l-23 -44 -1 -1243 c-1 -684
-5 -1273 -8 -1310 -38 -386 -318 -714 -702 -823 -77 -22 -91 -23 -699 -26
-410 -2 -634 -7 -661 -14 -53 -14 -109 -60 -137 -112 -22 -42 -22 -45 -23
-585 0 -539 0 -544 22 -591 25 -55 84 -107 136 -122 41 -11 2438 -8 2473 3 11
3 49 13 85 21 431 102 772 479 838 927 9 61 9 3035 0 3085 -4 22 -10 54 -13
70 -56 308 -319 643 -605 772 -25 11 -61 28 -81 36 -84 38 -259 73 -380 76
-58 1 -83 -3 -114 -19z"/>
<path d="M2490 3482 c-287 -20 -531 -132 -730 -332 -161 -163 -256 -340 -307
-572 -15 -72 -18 -135 -18 -493 l0 -410 28 -48 c19 -32 44 -56 80 -77 l52 -30
490 0 c449 1 499 2 590 21 419 83 756 402 859 812 35 135 37 171 38 586 0 359
-1 380 -20 417 -26 50 -67 88 -117 110 -36 16 -87 17 -475 18 -239 1 -451 0
-470 -2z m398 -468 c110 -71 59 -244 -72 -244 -78 0 -143 71 -133 147 13 97
124 149 205 97z"/>
<path d="M2831 2991 c-17 -11 -18 -56 -1 -76 18 -22 56 -18 74 6 22 32 3 79
-32 79 -15 0 -33 -4 -41 -9z"/>
</g>
</svg>
